<svg xmlns="http://www.w3.org/2000/svg" width="406" height="139" viewBox="0 0 406 139"><title>svelte-logotype</title><path d="M59.4561,100.3382a24.08,24.08,0,0,1-13.72-3.8769,19.8715,19.8715,0,0,1-8.0107-10.6094l8.3515-3.0683a15.4054,15.4054,0,0,0,5.4541,6.6044,14.3656,14.3656,0,0,0,8.2657,2.4288,12.1373,12.1373,0,0,0,7.8818-2.3858,8.2746,8.2746,0,0,0,2.94-6.8174,7.4559,7.4559,0,0,0-.8095-3.4511,10.3225,10.3225,0,0,0-1.8321-2.6,12.3611,12.3611,0,0,0-3.1533-2.0879q-2.1314-1.0635-3.5361-1.6192-1.4062-.5521-4.1328-1.4912-3.41-1.1924-5.1133-1.874a38.4516,38.4516,0,0,1-4.4736-2.2588,16.5374,16.5374,0,0,1-4.1758-3.1523,15.2908,15.2908,0,0,1-2.5137-4.1338,14.77,14.77,0,0,1,4.0049-16.7871q5.1138-4.5162,13.8906-4.5166,7.3272,0,12.0576,3.2382a15.6575,15.6575,0,0,1,6.3487,8.6075L69,53.2142a9.5238,9.5238,0,0,0-3.9629-4.3887,13.31,13.31,0,0,0-6.9443-1.6621,10.703,10.703,0,0,0-6.6895,1.875,6.2891,6.2891,0,0,0-2.4287,5.2832,5.5132,5.5132,0,0,0,1.874,4.0909,12.8853,12.8853,0,0,0,3.92,2.6416q2.0463.8524,6.2216,2.3007,2.5548.939,3.791,1.4063t3.6221,1.5762A24.997,24.997,0,0,1,72.0674,68.34,32.1346,32.1346,0,0,1,75.05,70.7689a12.7235,12.7235,0,0,1,2.6,3.11,17.39,17.39,0,0,1,1.5332,3.8339,17.5828,17.5828,0,0,1,.64,4.8155q0,8.3524-5.71,13.08Q68.4024,100.3388,59.4561,100.3382Zm54.622-1.0224L93.626,39.6644h9.5449L116.72,81.25a64.4659,64.4659,0,0,1,1.875,6.8173A64.0335,64.0335,0,0,1,120.47,81.25l13.3789-41.586h9.459L122.94,99.3158Zm47.294,0V39.6644h36.9843V48.016h-28.121V64.3773h18.15v8.3516h-18.15V90.9642h29.9951v8.3516Zm61.44,0V39.6644h8.8633v51.13h29.1435v8.5215Zm71.41-51.13v51.13h-8.8633v-51.13H268.4873V39.6644h42.6074v8.5215Zm35.1933,51.13V39.6644H366.4V48.016H338.2793V64.3773h18.15v8.3516h-18.15V90.9642h29.9951v8.3516Z" style="fill:#4a4a55"/></svg>